<?xml version="1.0" encoding="UTF-8"?>
<svg id="Layer_1" xmlns="http://www.w3.org/2000/svg" version="1.1" viewBox="0 0 362.88 84.5">
  <!-- Generator: Adobe Illustrator 29.8.0, SVG Export Plug-In . SVG Version: 2.1.1 Build 43)  -->
  <defs>
    <style>
      .st0 {
        fill: #fff;
      }
    </style>
  </defs>
  <path class="st0" d="M22.74,37.51C10.85,37.51.97,46.96.06,59.21c-.91,12.25,7.46,23.15,19.21,25.02-1.16-1.17-1.82-2.77-1.82-4.45,0-1.98.91-3.84,2.45-5.02-6.8-1.5-11.4-8.06-10.68-15.2.73-7.15,6.56-12.57,13.51-12.58h6.49c-1.34-1.19-2.1-2.92-2.1-4.73s.77-3.55,2.1-4.74h-6.49.01ZM64.34,5.15c-.13,1.82-1.02,3.5-2.44,4.58,6.84,1.47,11.48,8.05,10.75,15.23-.73,7.17-6.61,12.61-13.59,12.57h-1.46c1.34,1.18,2.11,2.92,2.11,4.73s-.77,3.55-2.11,4.74h1.46c7.61,0,14.72-3.95,18.93-10.51,4.21-6.56,4.97-14.85,2.02-22.11-3.06-7.55-9.68-12.88-17.48-14.12,1.26,1.28,1.92,3.06,1.8,4.89M36.33,23.49v14.02h-3.4c-2.53,0-4.58,2.12-4.58,4.74s2.05,4.73,4.58,4.73h3.4v14.04c0,7.45-5.64,13.6-12.83,14.02h-.29c-2.53.04-4.55,2.2-4.5,4.81.04,2.61,2.13,4.7,4.65,4.65,12.32-.32,22.14-10.74,22.12-23.48v-14.04h8.43v.02c2.53,0,4.58-2.12,4.58-4.74s-2.05-4.73-4.58-4.73h-8.43v-14.04c0-7.46,5.65-13.63,12.86-14.02,2.53.05,4.63-2.02,4.69-4.63C63.08,2.23,61.08.05,58.55,0c-12.35.28-22.22,10.72-22.21,23.49"/>
  <g>
    <path class="st0" d="M111.04,36.34c-2.05-1.24-4.34-1.86-6.87-1.86-4.08,0-7.41,1.32-9.99,3.97-2.59,2.65-3.88,5.96-3.88,9.93,0,1.95.34,3.78,1.01,5.47s1.63,3.17,2.86,4.42,2.76,2.23,4.57,2.94,3.8,1.07,5.96,1.07c2.5,0,4.72-.48,6.67-1.45,1.94-.97,3.54-2.36,4.79-4.18l-5.47-3.16c-.6.79-1.41,1.42-2.44,1.9-1.03.48-2.17.72-3.44.72-1.87,0-3.46-.41-4.77-1.22s-2.2-2.05-2.66-3.71h19.83c.17-.99.26-1.93.26-2.8,0-2.55-.56-4.89-1.68-7-1.12-2.12-2.71-3.79-4.75-5.04ZM97.28,45.91c.39-1.7,1.19-3.01,2.39-3.93,1.2-.92,2.7-1.39,4.5-1.39,1.54,0,2.92.44,4.12,1.32,1.21.88,2.01,2.21,2.4,3.99h-13.41Z"/>
    <path class="st0" d="M125.57,23.69c-1.13,0-2.11.42-2.93,1.26s-1.23,1.82-1.23,2.95.41,2.11,1.23,2.93,1.8,1.23,2.93,1.23,2.14-.41,2.97-1.23c.83-.82,1.25-1.8,1.25-2.93s-.42-2.12-1.25-2.95c-.83-.84-1.82-1.26-2.97-1.26Z"/>
    <rect class="st0" x="122.2" y="35.22" width="6.78" height="26.31"/>
    <path class="st0" d="M155.32,38.48c-2.01-2.67-4.81-4.01-8.4-4.01-2.43,0-4.66.61-6.68,1.82-2.02,1.22-3.6,2.86-4.73,4.92-1.13,2.06-1.7,4.31-1.7,6.74s.57,4.7,1.7,6.76,2.7,3.69,4.71,4.89c2.01,1.21,4.24,1.81,6.69,1.81,3.6,0,6.4-1.34,8.4-4.01v2.85c0,2.06-.61,3.65-1.82,4.78s-2.9,1.7-5.06,1.7c-1.29,0-2.4-.18-3.34-.53s-1.67-.78-2.17-1.28c-.51-.51-.96-1.14-1.37-1.89l-5.81,3.31c1.15,2.11,2.8,3.7,4.96,4.79,2.16,1.09,4.67,1.63,7.53,1.63,1.42,0,2.79-.15,4.1-.46,1.31-.31,2.55-.8,3.72-1.46s2.2-1.48,3.07-2.44c.87-.96,1.56-2.14,2.07-3.53.51-1.4.76-2.93.76-4.61v-25.05h-6.63v3.26h0ZM153.24,53.14c-1.39,1.35-3.15,2.02-5.29,2.02s-3.9-.67-5.28-2.02c-1.38-1.34-2.07-3.07-2.07-5.18s.69-3.78,2.07-5.14c1.38-1.35,3.14-2.03,5.28-2.03s3.91.68,5.29,2.03c1.39,1.35,2.08,3.07,2.08,5.14s-.69,3.83-2.08,5.18Z"/>
    <path class="st0" d="M182.73,34.48c-1.75,0-3.29.32-4.64.96-1.34.64-2.41,1.55-3.2,2.74v-13.49h-6.78v36.84h6.78v-14.21c0-2.19.53-3.83,1.58-4.91,1.05-1.08,2.45-1.62,4.2-1.62,1.58,0,2.84.47,3.79,1.4s1.43,2.27,1.43,4.02v15.31h6.78v-16.16c0-3.39-.93-6.05-2.8-7.99-1.87-1.94-4.25-2.9-7.14-2.9h0Z"/>
    <path class="st0" d="M221.9,26.49c-2.08,1.94-3.12,4.76-3.12,8.48v.26h-11.23v-7.37l-6.78,2.06v5.32h-4.57v6.53h4.57v10.94c0,2.43.4,4.33,1.2,5.7s2.13,2.32,4,2.85,4.38.62,7.55.28v-6.17c-1.3.07-2.39.08-3.28.04-.88-.04-1.55-.28-2-.71s-.68-1.1-.68-2v-10.94h11.23v19.78h6.81v-19.78h5.58v-6.53h-5.58v-.26c0-1.73.47-2.94,1.41-3.63.94-.69,2.33-.97,4.16-.84v-6.53c-4.09-.26-7.18.58-9.26,2.52h-.01Z"/>
    <path class="st0" d="M252.78,36.3c-2.13-1.22-4.47-1.82-7.03-1.82s-4.86.61-6.99,1.82c-2.12,1.22-3.8,2.89-5.04,5.02-1.23,2.13-1.85,4.48-1.85,7.05s.62,4.92,1.85,7.05c1.23,2.13,2.91,3.81,5.04,5.02s4.45,1.82,6.99,1.82,4.89-.61,7.03-1.82c2.13-1.22,3.82-2.89,5.06-5.02s1.86-4.48,1.86-7.05-.62-4.92-1.86-7.05c-1.24-2.13-2.93-3.81-5.06-5.02ZM250.88,53.6c-1.36,1.36-3.07,2.04-5.13,2.04s-3.71-.68-5.06-2.06c-1.35-1.37-2.03-3.11-2.03-5.22s.68-3.84,2.03-5.22c1.35-1.37,3.04-2.06,5.06-2.06s3.76.68,5.13,2.04c1.36,1.36,2.04,3.1,2.04,5.23s-.68,3.87-2.04,5.23v.02Z"/>
    <rect class="st0" x="264.48" y="23.12" width="6.78" height="38.41"/>
    <path class="st0" d="M297.4,38.33c-2.02-2.57-4.86-3.85-8.53-3.85-1.73,0-3.38.36-4.96,1.08s-2.94,1.69-4.1,2.92c-1.16,1.22-2.07,2.7-2.75,4.43s-1.01,3.55-1.01,5.47.34,3.74,1.01,5.47c.68,1.73,1.59,3.21,2.75,4.43s2.52,2.2,4.1,2.92,3.23,1.08,4.96,1.08c3.66,0,6.51-1.28,8.53-3.85v3.11h6.78V24.69h-6.78v13.64ZM295.34,53.73c-1.37,1.38-3.11,2.07-5.22,2.07s-3.87-.69-5.24-2.07-2.06-3.16-2.06-5.36.68-3.98,2.06-5.36c1.37-1.38,3.12-2.07,5.24-2.07s3.85.69,5.22,2.07,2.06,3.17,2.06,5.36-.69,3.98-2.06,5.36Z"/>
    <path class="st0" d="M314.33,53.26c-1.23,0-2.29.44-3.16,1.32s-1.31,1.94-1.31,3.17.44,2.29,1.31,3.16c.88.87,1.93,1.31,3.16,1.31s2.29-.44,3.17-1.31,1.32-1.93,1.32-3.16-.44-2.29-1.32-3.17c-.88-.88-1.94-1.32-3.17-1.32Z"/>
    <path class="st0" d="M342.35,38.33c-2.07-2.57-4.93-3.85-8.58-3.85s-6.52,1.35-9.02,4.03c-2.5,2.69-3.75,5.98-3.75,9.87s1.25,7.18,3.75,9.87,5.51,4.03,9.02,4.03,6.51-1.28,8.58-3.85v3.11h6.78v-26.31h-6.78v3.11h0ZM340.29,53.73c-1.38,1.38-3.13,2.07-5.25,2.07s-3.84-.69-5.2-2.07c-1.36-1.38-2.04-3.16-2.04-5.36s.68-3.98,2.04-5.36c1.36-1.38,3.1-2.07,5.2-2.07s3.88.69,5.25,2.07c1.38,1.38,2.07,3.17,2.07,5.36s-.69,3.98-2.07,5.36Z"/>
    <rect class="st0" x="355.31" y="35.22" width="6.78" height="26.31"/>
    <path class="st0" d="M358.67,32.06c1.15,0,2.14-.41,2.97-1.23s1.25-1.8,1.25-2.93-.42-2.12-1.25-2.95c-.83-.84-1.82-1.26-2.97-1.26s-2.11.42-2.93,1.26-1.23,1.82-1.23,2.95.41,2.11,1.23,2.93,1.8,1.23,2.93,1.23Z"/>
  </g>
</svg>